<?xml version="1.0" encoding="UTF-8"?>
<svg xmlns="http://www.w3.org/2000/svg" xmlns:xlink="http://www.w3.org/1999/xlink" width="50px" height="50px" viewBox="0 0 50 50" version="1.1">
<g id="surface1">
<path style=" stroke:none;fill-rule:nonzero;fill:rgb(38.039216%,85.490196%,98.431373%);fill-opacity:1;" d="M 28.632812 18.554688 C 28.632812 20.5625 27.007812 22.1875 25 22.1875 C 22.992188 22.1875 21.367188 20.5625 21.367188 18.554688 C 21.367188 16.546875 22.992188 14.921875 25 14.921875 C 27.007812 14.921875 28.632812 16.546875 28.632812 18.554688 Z M 28.632812 18.554688 "/>
<path style=" stroke:none;fill-rule:nonzero;fill:rgb(38.039216%,85.490196%,98.431373%);fill-opacity:1;" d="M 25 31.914062 C 27.851562 34.6875 30.664062 36.328125 32.929688 36.328125 C 33.671875 36.328125 34.375 36.171875 34.960938 35.820312 C 36.992188 34.648438 37.734375 31.71875 37.03125 27.539062 C 36.914062 26.796875 36.757812 26.054688 36.5625 25.273438 C 37.34375 25.039062 38.046875 24.804688 38.75 24.570312 C 42.695312 23.046875 44.882812 20.9375 44.882812 18.632812 C 44.882812 16.289062 42.695312 14.179688 38.75 12.695312 C 38.046875 12.421875 37.34375 12.1875 36.5625 11.992188 C 36.757812 11.210938 36.914062 10.46875 37.03125 9.726562 C 37.695312 5.46875 36.953125 2.5 34.921875 1.328125 C 34.335938 0.976562 33.632812 0.820312 32.890625 0.820312 C 30.664062 0.820312 27.8125 2.460938 24.960938 5.234375 C 22.148438 2.460938 19.335938 0.820312 17.070312 0.820312 C 16.328125 0.820312 15.625 0.976562 15.039062 1.328125 C 13.007812 2.5 12.265625 5.429688 12.96875 9.609375 C 13.085938 10.351562 13.242188 11.09375 13.4375 11.875 C 12.65625 12.109375 11.953125 12.34375 11.25 12.578125 C 7.304688 14.101562 5.117188 16.210938 5.117188 18.515625 C 5.117188 20.859375 7.304688 22.96875 11.25 24.453125 C 11.953125 24.726562 12.65625 24.960938 13.4375 25.15625 C 13.242188 25.9375 13.085938 26.679688 12.96875 27.421875 C 12.304688 31.601562 13.046875 34.570312 15.039062 35.703125 C 15.625 36.054688 16.328125 36.210938 17.070312 36.210938 C 19.335938 36.289062 22.148438 34.648438 25 31.914062 Z M 22.8125 26.640625 C 23.515625 26.679688 24.257812 26.679688 25 26.679688 C 25.742188 26.679688 26.484375 26.679688 27.1875 26.640625 C 26.484375 27.578125 25.742188 28.4375 25 29.257812 C 24.257812 28.4375 23.515625 27.578125 22.8125 26.640625 Z M 17.96875 22.617188 C 18.359375 23.28125 18.710938 23.90625 19.140625 24.53125 C 17.929688 24.375 16.796875 24.179688 15.703125 23.945312 C 16.054688 22.890625 16.445312 21.796875 16.914062 20.703125 C 17.226562 21.328125 17.578125 21.992188 17.96875 22.617188 Z M 15.703125 13.203125 C 16.796875 12.96875 17.929688 12.773438 19.140625 12.617188 C 18.75 13.242188 18.359375 13.867188 17.96875 14.53125 C 17.578125 15.195312 17.226562 15.820312 16.914062 16.484375 C 16.40625 15.351562 16.015625 14.257812 15.703125 13.203125 Z M 17.851562 18.554688 C 18.359375 17.5 18.90625 16.445312 19.53125 15.390625 C 20.117188 14.375 20.78125 13.359375 21.445312 12.34375 C 22.617188 12.265625 23.789062 12.226562 25 12.226562 C 26.25 12.226562 27.421875 12.265625 28.554688 12.34375 C 29.257812 13.359375 29.882812 14.375 30.46875 15.390625 C 31.09375 16.445312 31.640625 17.5 32.148438 18.554688 C 31.640625 19.609375 31.09375 20.664062 30.46875 21.71875 C 29.882812 22.734375 29.21875 23.75 28.554688 24.765625 C 27.382812 24.84375 26.210938 24.882812 25 24.882812 C 23.75 24.882812 22.578125 24.84375 21.445312 24.765625 C 20.742188 23.75 20.117188 22.734375 19.53125 21.71875 C 18.90625 20.664062 18.359375 19.609375 17.851562 18.554688 Z M 33.125 16.445312 L 32.070312 14.492188 C 31.679688 13.828125 31.328125 13.203125 30.898438 12.578125 C 32.109375 12.734375 33.242188 12.929688 34.335938 13.164062 C 33.984375 14.257812 33.59375 15.351562 33.125 16.445312 Z M 33.125 20.664062 C 33.59375 21.757812 33.984375 22.851562 34.335938 23.90625 C 33.242188 24.140625 32.109375 24.335938 30.898438 24.492188 C 31.289062 23.867188 31.679688 23.242188 32.070312 22.578125 C 32.421875 21.992188 32.773438 21.328125 33.125 20.664062 Z M 34.023438 34.21875 C 33.710938 34.414062 33.320312 34.492188 32.890625 34.492188 C 30.976562 34.492188 28.59375 32.929688 26.25 30.585938 C 27.382812 29.375 28.476562 28.007812 29.570312 26.484375 C 31.40625 26.328125 33.164062 26.054688 34.804688 25.664062 C 35 26.367188 35.117188 27.070312 35.234375 27.773438 C 35.78125 31.09375 35.351562 33.476562 34.023438 34.21875 Z M 36.054688 13.632812 C 40.429688 14.882812 43.046875 16.796875 43.046875 18.554688 C 43.046875 20.078125 41.25 21.601562 38.085938 22.8125 C 37.460938 23.046875 36.757812 23.28125 36.054688 23.476562 C 35.546875 21.875 34.921875 20.234375 34.140625 18.554688 C 34.921875 16.875 35.585938 15.234375 36.054688 13.632812 Z M 32.929688 2.617188 C 33.359375 2.617188 33.710938 2.695312 34.0625 2.890625 C 35.351562 3.632812 35.820312 5.976562 35.273438 9.335938 C 35.15625 10 35 10.703125 34.84375 11.445312 C 33.203125 11.09375 31.445312 10.820312 29.609375 10.625 C 28.554688 9.101562 27.421875 7.734375 26.289062 6.523438 C 28.632812 4.21875 31.015625 2.617188 32.929688 2.617188 Z M 27.1875 10.46875 C 26.484375 10.429688 25.742188 10.429688 25 10.429688 C 24.257812 10.429688 23.515625 10.429688 22.8125 10.46875 C 23.515625 9.53125 24.257812 8.671875 25 7.851562 C 25.742188 8.671875 26.484375 9.570312 27.1875 10.46875 Z M 15.976562 2.890625 C 16.289062 2.695312 16.679688 2.617188 17.109375 2.617188 C 19.023438 2.617188 21.40625 4.179688 23.75 6.523438 C 22.617188 7.734375 21.523438 9.101562 20.429688 10.625 C 18.59375 10.78125 16.835938 11.054688 15.195312 11.445312 C 15 10.742188 14.882812 10.039062 14.765625 9.335938 C 14.21875 6.015625 14.648438 3.671875 15.976562 2.890625 Z M 13.945312 23.476562 C 9.570312 22.226562 6.953125 20.3125 6.953125 18.554688 C 6.953125 17.03125 8.75 15.507812 11.914062 14.296875 C 12.539062 14.0625 13.242188 13.828125 13.945312 13.632812 C 14.453125 15.234375 15.078125 16.875 15.859375 18.554688 C 15.078125 20.234375 14.414062 21.914062 13.945312 23.476562 Z M 14.765625 27.773438 C 14.882812 27.109375 15.039062 26.40625 15.195312 25.664062 C 16.835938 26.015625 18.59375 26.289062 20.429688 26.484375 C 21.484375 28.007812 22.617188 29.375 23.75 30.585938 C 21.40625 32.890625 19.023438 34.492188 17.109375 34.492188 C 16.679688 34.492188 16.328125 34.414062 15.976562 34.21875 C 14.648438 33.476562 14.21875 31.09375 14.765625 27.773438 Z M 13.125 43.867188 C 13.984375 42.8125 14.023438 41.640625 13.554688 40.46875 C 13.085938 39.296875 12.109375 38.75 10.898438 38.710938 C 9.453125 38.671875 7.96875 38.710938 6.523438 38.710938 L 6.25 38.710938 L 6.25 48.828125 L 7.421875 48.828125 L 7.421875 45 L 9.257812 45 C 9.492188 45 9.6875 45.078125 9.804688 45.273438 L 12.148438 48.90625 C 12.1875 48.984375 12.304688 49.101562 12.382812 49.101562 L 13.90625 49.101562 C 12.96875 47.65625 12.070312 46.289062 11.132812 44.882812 C 11.953125 44.765625 12.65625 44.492188 13.125 43.867188 Z M 7.421875 43.789062 L 7.421875 39.921875 L 7.851562 39.921875 C 8.75 39.921875 9.6875 39.882812 10.585938 39.960938 C 11.640625 40 12.382812 40.820312 12.382812 41.875 C 12.382812 42.929688 11.523438 43.75 10.46875 43.789062 C 9.53125 43.828125 8.59375 43.789062 7.421875 43.789062 Z M 22.539062 44.296875 C 21.914062 41.5625 19.414062 40.859375 17.5 41.71875 C 16.015625 42.382812 15.351562 43.671875 15.3125 45.273438 C 15.273438 46.484375 15.625 47.578125 16.5625 48.398438 C 17.617188 49.335938 18.90625 49.453125 20.234375 49.21875 C 20.976562 49.0625 21.640625 48.710938 22.148438 48.164062 C 21.953125 47.890625 21.757812 47.617188 21.5625 47.382812 C 20.46875 48.320312 19.257812 48.632812 17.929688 48.007812 C 17.070312 47.578125 16.640625 46.523438 16.5625 45.742188 L 22.617188 45.742188 L 22.617188 45.234375 C 22.65625 44.882812 22.617188 44.570312 22.539062 44.296875 Z M 16.640625 44.921875 C 16.523438 43.75 17.695312 42.5 18.984375 42.5 C 20.46875 42.460938 21.40625 43.359375 21.445312 44.921875 Z M 28.632812 41.523438 C 28.046875 41.40625 27.421875 41.367188 26.835938 41.40625 C 25.898438 41.484375 25.078125 41.914062 24.414062 42.617188 C 24.609375 42.890625 24.765625 43.164062 25 43.476562 C 25.078125 43.398438 25.15625 43.320312 25.234375 43.28125 C 25.859375 42.695312 26.601562 42.382812 27.5 42.460938 C 28.203125 42.5 28.867188 42.734375 29.0625 43.4375 C 29.21875 43.984375 29.179688 44.570312 29.21875 45.15625 C 29.101562 45.15625 29.0625 45.117188 29.023438 45.078125 C 28.085938 44.296875 27.03125 44.140625 25.898438 44.414062 C 24.84375 44.6875 24.179688 45.507812 24.101562 46.5625 C 24.023438 47.773438 24.570312 48.671875 25.625 49.101562 C 26.289062 49.375 27.03125 49.375 27.734375 49.21875 C 28.28125 49.101562 28.515625 48.789062 29.296875 48.359375 L 29.296875 48.867188 L 30.390625 48.867188 C 30.390625 47.304688 30.429688 45.390625 30.390625 43.59375 C 30.390625 42.460938 29.726562 41.757812 28.632812 41.523438 Z M 29.179688 46.445312 C 29.140625 46.5625 29.179688 46.679688 29.179688 46.796875 C 29.179688 47.617188 28.984375 47.890625 28.203125 48.203125 C 27.65625 48.398438 27.070312 48.476562 26.484375 48.28125 C 25.820312 48.085938 25.351562 47.5 25.351562 46.835938 C 25.3125 46.171875 25.742188 45.507812 26.40625 45.3125 C 27.304688 45 28.125 45.195312 28.867188 45.742188 C 29.101562 45.9375 29.257812 46.132812 29.179688 46.445312 Z M 35.273438 42.578125 C 36.289062 42.265625 37.226562 42.460938 37.929688 43.320312 L 38.046875 43.398438 C 38.320312 43.164062 38.554688 42.929688 38.867188 42.65625 C 38.75 42.539062 38.710938 42.460938 38.632812 42.34375 C 37.5 41.132812 35.273438 40.976562 33.90625 41.953125 C 31.992188 43.359375 32.03125 46.09375 32.96875 47.539062 C 33.867188 48.90625 35.15625 49.375 36.679688 49.179688 C 37.578125 49.0625 38.320312 48.632812 38.90625 47.890625 C 38.632812 47.65625 38.359375 47.421875 38.085938 47.148438 C 38.007812 47.226562 37.96875 47.265625 37.929688 47.34375 C 36.875 48.515625 35.117188 48.398438 34.179688 47.148438 C 33.632812 46.40625 33.515625 45.546875 33.671875 44.6875 C 33.75 43.710938 34.257812 42.929688 35.273438 42.578125 Z M 43.398438 47.890625 C 43.320312 47.929688 43.28125 47.96875 43.28125 47.96875 C 42.96875 48.203125 42.65625 48.242188 42.304688 48.125 C 41.953125 47.96875 41.914062 47.65625 41.875 47.34375 L 41.875 42.890625 C 41.875 42.8125 41.875 42.96875 41.914062 42.578125 L 43.398438 42.578125 L 43.398438 41.40625 L 41.835938 41.40625 L 41.835938 39.453125 L 40.664062 39.453125 L 40.664062 41.5625 L 39.648438 41.5625 C 39.570312 41.5625 39.453125 41.640625 39.453125 41.71875 C 39.414062 41.992188 39.453125 42.1875 39.453125 42.578125 L 40.703125 42.578125 L 40.703125 47.578125 C 40.703125 48.203125 40.859375 48.75 41.40625 49.0625 C 41.992188 49.414062 43.125 49.335938 43.632812 48.90625 C 43.710938 48.867188 43.75 48.710938 43.75 48.671875 C 43.632812 48.4375 43.515625 48.164062 43.398438 47.890625 Z M 43.398438 47.890625 "/>
</g>
</svg>
