<?xml version="1.0" encoding="UTF-8"?>
<svg xmlns="http://www.w3.org/2000/svg" xmlns:xlink="http://www.w3.org/1999/xlink" width="50px" height="50px" viewBox="0 0 50 50" version="1.1">
<g id="surface1">
<path style=" stroke:none;fill-rule:nonzero;fill:rgb(0%,17.254902%,29.411765%);fill-opacity:1;" d="M 39.546875 16.144531 C 40.359375 12.199219 40.535156 9.175781 40.007812 6.980469 C 39.695312 5.675781 39.125 4.609375 38.253906 3.839844 C 37.335938 3.03125 36.175781 2.632812 34.871094 2.632812 C 32.71875 2.632812 30.457031 3.613281 28.039062 5.476562 C 27.050781 6.234375 26.027344 7.148438 24.964844 8.222656 C 24.878906 8.113281 24.785156 8.011719 24.679688 7.914062 C 21.671875 5.242188 19.144531 3.578125 16.980469 2.9375 C 15.691406 2.558594 14.484375 2.519531 13.382812 2.890625 C 12.222656 3.28125 11.296875 4.085938 10.644531 5.21875 C 9.566406 7.082031 9.285156 9.535156 9.683594 12.5625 C 9.847656 13.792969 10.128906 15.136719 10.523438 16.59375 C 10.375 16.613281 10.226562 16.644531 10.078125 16.695312 C 6.265625 17.957031 3.566406 19.3125 1.929688 20.867188 C 0.957031 21.789062 0.324219 22.816406 0.09375 23.953125 C -0.148438 25.152344 0.0859375 26.359375 0.738281 27.488281 C 1.8125 29.351562 3.792969 30.820312 6.609375 31.984375 C 7.738281 32.449219 9.019531 32.871094 10.449219 33.253906 C 10.382812 33.402344 10.332031 33.558594 10.300781 33.722656 C 9.484375 37.664062 9.3125 40.6875 9.835938 42.882812 C 10.148438 44.1875 10.722656 45.253906 11.589844 46.023438 C 12.511719 46.832031 13.671875 47.230469 14.976562 47.230469 C 17.128906 47.230469 19.390625 46.25 21.808594 44.390625 C 22.804688 43.621094 23.839844 42.695312 24.914062 41.609375 C 25.023438 41.78125 25.160156 41.941406 25.320312 42.085938 C 28.328125 44.757812 30.855469 46.421875 33.019531 47.0625 C 34.308594 47.441406 35.515625 47.480469 36.617188 47.109375 C 37.777344 46.71875 38.703125 45.914062 39.355469 44.78125 C 40.433594 42.917969 40.714844 40.464844 40.316406 37.4375 C 40.144531 36.160156 39.851562 34.765625 39.433594 33.246094 C 39.597656 33.230469 39.761719 33.195312 39.921875 33.140625 C 43.734375 31.878906 46.433594 30.523438 48.070312 28.972656 C 49.042969 28.046875 49.675781 27.019531 49.90625 25.882812 C 50.148438 24.683594 49.914062 23.480469 49.261719 22.351562 C 48.1875 20.488281 46.207031 19.019531 43.390625 17.855469 C 42.226562 17.375 40.902344 16.9375 39.421875 16.550781 C 39.476562 16.421875 39.515625 16.285156 39.546875 16.144531 Z M 39.546875 16.144531 "/>
<path style=" stroke:none;fill-rule:evenodd;fill:rgb(100%,85.098039%,29.803922%);fill-opacity:1;" d="M 21.15625 16.84375 L 28.84375 16.84375 C 29.316406 16.84375 29.75 17.09375 29.984375 17.503906 L 33.835938 24.214844 C 34.070312 24.617188 34.070312 25.117188 33.835938 25.523438 L 29.984375 32.234375 C 29.75 32.644531 29.316406 32.894531 28.84375 32.894531 L 21.15625 32.894531 C 20.6875 32.894531 20.25 32.644531 20.015625 32.234375 L 16.164062 25.523438 C 15.933594 25.117188 15.933594 24.617188 16.164062 24.214844 L 20.015625 17.503906 C 20.25 17.09375 20.6875 16.84375 21.15625 16.84375 Z M 27.890625 18.492188 C 28.363281 18.492188 28.796875 18.746094 29.03125 19.15625 L 31.933594 24.214844 C 32.164062 24.621094 32.164062 25.117188 31.933594 25.523438 L 29.03125 30.582031 C 28.796875 30.992188 28.363281 31.242188 27.890625 31.242188 L 22.109375 31.242188 C 21.636719 31.242188 21.203125 30.992188 20.96875 30.582031 L 18.070312 25.523438 C 17.835938 25.117188 17.835938 24.621094 18.070312 24.214844 L 20.96875 19.15625 C 21.203125 18.746094 21.636719 18.492188 22.109375 18.492188 Z M 26.863281 20.300781 L 23.136719 20.300781 C 22.667969 20.300781 22.230469 20.550781 21.996094 20.960938 L 20.128906 24.214844 C 19.894531 24.617188 19.894531 25.117188 20.128906 25.523438 L 21.996094 28.777344 C 22.230469 29.183594 22.667969 29.4375 23.136719 29.4375 L 26.863281 29.4375 C 27.335938 29.4375 27.769531 29.183594 28.003906 28.777344 L 29.871094 25.523438 C 30.105469 25.117188 30.105469 24.617188 29.871094 24.214844 L 28.003906 20.960938 C 27.769531 20.550781 27.335938 20.300781 26.863281 20.300781 Z M 25.875 22.03125 C 26.34375 22.03125 26.777344 22.28125 27.015625 22.6875 L 27.890625 24.210938 C 28.125 24.617188 28.125 25.117188 27.890625 25.523438 L 27.015625 27.046875 C 26.777344 27.457031 26.34375 27.707031 25.875 27.707031 L 24.128906 27.707031 C 23.65625 27.707031 23.222656 27.457031 22.988281 27.046875 L 22.109375 25.523438 C 21.878906 25.117188 21.878906 24.617188 22.109375 24.210938 L 22.988281 22.6875 C 23.222656 22.28125 23.65625 22.03125 24.128906 22.03125 Z M 25 23.734375 C 24.59375 23.734375 24.21875 23.949219 24.015625 24.300781 C 23.8125 24.652344 23.8125 25.085938 24.015625 25.4375 C 24.21875 25.789062 24.59375 26.003906 25 26.003906 C 25.40625 26.003906 25.78125 25.789062 25.984375 25.4375 C 26.1875 25.085938 26.1875 24.652344 25.984375 24.300781 C 25.78125 23.949219 25.40625 23.734375 25 23.734375 Z M 15.789062 24.867188 L 17.832031 24.867188 "/>
<path style=" stroke:none;fill-rule:evenodd;fill:rgb(100%,25.490196%,32.941176%);fill-opacity:1;" d="M 14.4375 28.515625 C 14.78125 28.316406 15.21875 28.441406 15.414062 28.789062 L 15.539062 29.011719 C 16.542969 30.785156 17.582031 32.46875 18.667969 34.0625 C 19.949219 35.945312 21.390625 37.847656 22.988281 39.777344 C 23.242188 40.078125 23.207031 40.527344 22.910156 40.789062 L 22.75 40.929688 C 17.460938 45.554688 14.019531 46.476562 12.433594 43.699219 C 10.882812 40.984375 11.441406 36.046875 14.117188 28.890625 C 14.179688 28.730469 14.289062 28.597656 14.4375 28.515625 Z M 36.984375 33.957031 C 37.363281 33.890625 37.730469 34.144531 37.804688 34.523438 L 37.84375 34.734375 C 39.152344 41.578125 38.234375 45 35.082031 45 C 32.003906 45 28.082031 42.082031 23.320312 36.242188 C 23.214844 36.113281 23.15625 35.953125 23.15625 35.785156 C 23.160156 35.390625 23.484375 35.074219 23.875 35.074219 L 24.128906 35.078125 C 26.132812 35.089844 28.082031 35.019531 29.976562 34.867188 C 32.214844 34.691406 34.546875 34.386719 36.984375 33.957031 Z M 38.792969 19.425781 C 38.929688 19.054688 39.34375 18.859375 39.726562 18.988281 L 39.933594 19.058594 C 46.734375 21.375 49.316406 23.917969 47.683594 26.695312 C 46.085938 29.410156 41.441406 31.382812 33.753906 32.621094 C 33.582031 32.648438 33.40625 32.617188 33.257812 32.53125 C 32.90625 32.328125 32.789062 31.882812 32.996094 31.539062 L 33.128906 31.320312 C 34.179688 29.558594 35.125 27.804688 35.972656 26.058594 C 36.976562 24 37.914062 21.785156 38.792969 19.425781 Z M 16.246094 17.378906 C 16.417969 17.351562 16.59375 17.382812 16.742188 17.46875 C 17.09375 17.671875 17.210938 18.117188 17.003906 18.460938 L 16.871094 18.679688 C 15.820312 20.441406 14.875 22.195312 14.027344 23.941406 C 13.023438 26 12.085938 28.214844 11.207031 30.574219 C 11.070312 30.945312 10.65625 31.140625 10.273438 31.011719 L 10.066406 30.941406 C 3.265625 28.625 0.683594 26.082031 2.316406 23.304688 C 3.914062 20.589844 8.558594 18.617188 16.246094 17.378906 Z M 27.25 9.070312 C 32.539062 4.445312 35.980469 3.523438 37.566406 6.300781 C 39.117188 9.015625 38.558594 13.953125 35.882812 21.109375 C 35.820312 21.269531 35.710938 21.402344 35.5625 21.484375 C 35.21875 21.683594 34.78125 21.558594 34.585938 21.210938 L 34.460938 20.988281 C 33.457031 19.214844 32.417969 17.53125 31.332031 15.9375 C 30.050781 14.054688 28.609375 12.152344 27.011719 10.222656 C 26.757812 9.921875 26.792969 9.472656 27.089844 9.210938 Z M 15.179688 4.738281 C 18.261719 4.738281 22.183594 7.65625 26.945312 13.492188 C 27.050781 13.621094 27.105469 13.785156 27.105469 13.953125 C 27.101562 14.347656 26.78125 14.664062 26.386719 14.660156 L 26.136719 14.660156 C 24.128906 14.648438 22.179688 14.71875 20.285156 14.867188 C 18.050781 15.046875 15.714844 15.347656 13.28125 15.777344 C 12.898438 15.847656 12.53125 15.59375 12.457031 15.210938 L 12.417969 15.003906 C 11.109375 8.160156 12.03125 4.738281 15.179688 4.738281 Z M 15.179688 4.738281 "/>
</g>
</svg>
